<svg width="52" height="48" viewBox="0 0 52 48" fill="none" xmlns="http://www.w3.org/2000/svg">
<path d="M35.4357 11.1967C34.733 11.0962 33.9801 11.046 33.2273 11.046H18.3704C16.3627 11.046 14.7565 12.6527 14.7565 14.6611V36.5021C6.32422 34.8452 0 27.364 0 18.4268C0 8.28452 8.28172 0 18.4205 0C26.0498 0 32.5748 4.61925 35.4357 11.1967Z" fill="#7059E2"/>
<path d="M36.8913 18.4268C36.8913 28.6192 28.6096 36.9038 18.4205 36.9038C17.1657 36.9038 15.9109 36.7531 14.7565 36.5523V14.7113C14.7565 12.7029 16.3627 11.0962 18.3704 11.0962H33.1771C33.9299 11.0962 34.6828 11.1464 35.3855 11.2468C36.3392 13.4058 36.8913 15.8661 36.8913 18.4268Z" fill="#2929CC"/>
<path d="M51.6478 29.6736C51.5474 39.8661 43.1151 48 32.9763 48H18.3704C16.3627 48 14.7565 46.3933 14.7565 44.3849V36.5523C15.9611 36.8034 17.1657 36.9038 18.4205 36.9038C28.6096 36.9038 36.8913 28.6192 36.8913 18.4268C36.8913 15.8661 36.3392 13.4059 35.4357 11.1967C44.6209 12.3013 51.698 20.1841 51.6478 29.6736Z" fill="#569FE8"/>
<path d="M30.5671 20.2845H19.2236C18.7719 20.2845 18.4205 19.9331 18.4205 19.4812V17.3724C18.4205 16.9205 18.7719 16.5691 19.2236 16.5691H30.5671C31.0188 16.5691 31.3701 16.9205 31.3701 17.3724V19.4812C31.3701 19.9331 31.0188 20.2845 30.5671 20.2845Z" fill="white"/>
<path d="M28.8605 29.523H19.073C18.7217 29.523 18.4205 29.2218 18.4205 28.8703V26.4603C18.4205 26.1088 18.7217 25.8076 19.073 25.8076H28.8605C29.2119 25.8076 29.513 26.1088 29.513 26.4603V28.8703C29.513 29.2218 29.2119 29.523 28.8605 29.523Z" fill="white"/>
</svg>
